<svg width="1000" height="1000" viewBox="0 0 1000 1000" fill="none" xmlns="http://www.w3.org/2000/svg">
<path d="M223.1 449.8L224.9 443.8H351.2L348.2 449.8H223.1ZM377.9 380.2C373.9 375.6 369.4 372.4 364.4 370.6C359.6 368.8 353.1 367.9 344.9 367.9C338.1 367.9 332.1 368.9 326.9 370.9C321.7 372.9 317.2 375.1 313.4 377.5C304.8 383.1 298.2 391.3 293.6 402.1C289 412.9 284.4 426.7 279.8 443.5L221 650.2C216.2 650.4 211.5 650.8 206.9 651.4C202.3 652 198 653 194 654.4L252.5 448.3C256.5 433.3 260.9 420.6 265.7 410.2C270.5 399.8 276.8 391.3 284.6 384.7C293.4 377.1 303.3 371.7 314.3 368.5C325.3 365.1 336.3 363.4 347.3 363.4C353.7 363.4 360.1 364.4 366.5 366.4C372.9 368.2 377.8 371.5 381.2 376.3L377.9 380.2ZM346.7 389.2C347.7 384 350.3 379.5 354.5 375.7C358.9 371.9 363.6 370 368.6 370C373.8 370 377.8 371.9 380.6 375.7C383.6 379.5 384.6 384 383.6 389.2C382.6 394.4 379.9 398.9 375.5 402.7C371.3 406.5 366.6 408.4 361.4 408.4C356.4 408.4 352.4 406.5 349.4 402.7C346.4 398.9 345.5 394.4 346.7 389.2ZM323.6 572.5C321.8 578.5 321.2 583.1 321.8 586.3C322.4 589.5 324.6 591.1 328.4 591.1C332.4 591.1 336.2 588.9 339.8 584.5C343.4 580.1 347.4 572.1 351.8 560.5L356 549.4H361.7L353.9 571.3C351.1 579.1 347.7 585.3 343.7 589.9C339.7 594.3 335.4 597.4 330.8 599.2C326.2 601.2 321.6 602.2 317 602.2C308.4 602.2 302.6 600.2 299.6 596.2C296.6 592.2 295.5 587 296.3 580.6C297.1 574.2 298.8 567.4 301.4 560.2L336.8 443.8C341.8 443.6 346.6 443.2 351.2 442.6C356 442 360.3 441 364.1 439.6L323.6 572.5ZM413.33 598H387.23L423.23 469.3C424.03 466.9 424.63 464.3 425.03 461.5C425.63 458.5 425.53 456 424.73 454C423.93 451.8 421.93 450.7 418.73 450.7C414.33 450.7 410.43 452.9 407.03 457.3C403.63 461.5 399.83 469.5 395.63 481.3L391.73 492.4H386.03L393.53 470.5C397.93 457.9 403.33 449.6 409.73 445.6C416.33 441.6 422.83 439.6 429.23 439.6C435.23 439.6 439.53 440.9 442.13 443.5C444.93 446.1 446.43 449.5 446.63 453.7C447.03 457.7 446.73 462.2 445.73 467.2C444.93 472 443.93 476.8 442.73 481.6L413.33 598ZM427.13 535.6C434.13 517.6 440.93 502.5 447.53 490.3C454.13 478.1 460.63 468.3 467.03 460.9C473.43 453.3 479.93 447.9 486.53 444.7C493.33 441.3 500.33 439.6 507.53 439.6C516.93 439.6 523.33 441.9 526.73 446.5C530.33 450.9 531.93 456.6 531.53 463.6C531.13 470.4 529.73 477.5 527.33 484.9L498.23 572.5C496.43 577.9 495.63 582.4 495.83 586C496.23 589.4 498.63 591.1 503.03 591.1C506.83 591.1 510.53 589 514.13 584.8C517.93 580.6 521.93 572.5 526.13 560.5L530.03 549.4H535.73L528.23 571.3C525.43 579.7 521.93 586.1 517.73 590.5C513.73 594.9 509.43 597.9 504.83 599.5C500.43 601.3 496.13 602.2 491.93 602.2C487.13 602.2 483.13 601.4 479.93 599.8C476.93 598.2 474.63 596.1 473.03 593.5C470.83 589.9 470.13 585.2 470.93 579.4C471.73 573.6 473.33 567.2 475.73 560.2L504.23 474.4C505.23 471.6 506.03 468.3 506.63 464.5C507.43 460.5 507.33 457 506.33 454C505.33 450.8 502.43 449.2 497.63 449.2C492.83 449.2 487.73 451.3 482.33 455.5C476.93 459.7 471.33 465.7 465.53 473.5C459.73 481.1 454.03 490.3 448.43 501.1C442.83 511.7 437.43 523.5 432.23 536.5C427.23 549.3 422.63 563 418.43 577.6L427.13 535.6Z" fill="white"/>
<path d="M596.9 389.1L670.1 577.8C673.1 585.4 676.5 590.5 680.3 593.1C684.1 595.5 687.6 596.8 690.8 597V603C686.8 602.6 681.9 602.4 676.1 602.4C670.3 602.2 664.5 602.1 658.7 602.1C650.9 602.1 643.6 602.2 636.8 602.4C630 602.4 624.5 602.6 620.3 603V597C630.5 596.6 637 594.9 639.8 591.9C642.6 588.7 642 582 638 571.8L582.2 422.7L587 418.8L534.8 554.4C531.6 562.4 529.7 569.2 529.1 574.8C528.5 580.2 529 584.5 530.6 587.7C532.4 590.9 535.3 593.2 539.3 594.6C543.5 596 548.7 596.8 554.9 597V603C549.3 602.6 543.4 602.4 537.2 602.4C531.2 602.2 525.6 602.1 520.4 602.1C515.4 602.1 511.1 602.2 507.5 602.4C504.1 602.4 500.9 602.6 497.9 603V597C501.9 596 506 593.7 510.2 590.1C514.4 586.3 518.2 579.9 521.6 570.9L592.1 389.1C592.9 389.1 593.7 389.1 594.5 389.1C595.3 389.1 596.1 389.1 596.9 389.1ZM633.5 516.6V522.6H544.1L547.1 516.6H633.5ZM772.205 390.6V396.6C765.405 396.8 760.205 397.6 756.605 399C753.205 400.2 750.905 402.6 749.705 406.2C748.505 409.6 747.905 415 747.905 422.4V571.2C747.905 578.4 748.505 583.8 749.705 587.4C750.905 591 753.205 593.4 756.605 594.6C760.205 595.8 765.405 596.6 772.205 597V603C767.605 602.6 761.805 602.4 754.805 602.4C748.005 602.2 741.105 602.1 734.105 602.1C726.305 602.1 719.005 602.2 712.205 602.4C705.405 602.4 699.905 602.6 695.705 603V597C702.505 596.6 707.605 595.8 711.005 594.6C714.605 593.4 717.005 591 718.205 587.4C719.405 583.8 720.005 578.4 720.005 571.2V422.4C720.005 415 719.405 409.6 718.205 406.2C717.005 402.6 714.605 400.2 711.005 399C707.605 397.6 702.505 396.8 695.705 396.6V390.6C699.905 390.8 705.405 391 712.205 391.2C719.005 391.4 726.305 391.5 734.105 391.5C741.105 391.5 748.005 391.4 754.805 391.2C761.805 391 767.605 390.8 772.205 390.6Z" fill="white"/>
</svg>
